<svg viewBox="0 0 512 512" xmlns="http://www.w3.org/2000/svg">
<rect x="324.34" y="27.474" transform="matrix(0.7072 -0.7071 0.7071 0.7072 7.1634 302.8283)" fill="#FFFFFF" width="89.648" height="230.585"/>
<rect x="392.564" y="1.377" transform="matrix(0.7071 -0.7071 0.7071 0.7071 58.9395 324.3306)" fill="#FFFFFF" width="56.814" height="179.284"/>
<rect x="140.744" y="230.423" transform="matrix(0.7071 -0.7071 0.7071 0.7071 -106.0462 256.0264)" fill="#FFFFFF" width="230.568" height="51.2"/>
<rect x="62.592" y="331.355" transform="matrix(0.7071 -0.7071 0.7071 0.7071 -271.0363 187.6534)" fill="#FFFFFF" width="56.814" height="179.284"/>
<rect x="97.921" y="253.936" transform="matrix(0.7071 -0.7072 0.7072 0.7071 -219.2861 209.1058)" fill="#FFFFFF" width="89.648" height="230.585"/>
<path fill="#FFFFFF" d="M395.819,7.505c-10.001-10.001-26.223-10.001-36.224,0l-22.076,22.076c-10.001-10.001-26.223-10.001-36.224,0L256,74.867c-10.001,10.001-10.001,26.223,0,36.224l45.286,45.286L156.373,301.291l-45.286-45.286c-10.001-10.001-26.223-10.001-36.224,0l-45.286,45.286c-10.001,10.001-10.001,26.223,0,36.224L7.501,359.59c-10.001,10.001-10.001,26.223,0,36.224l108.681,108.681c10.001,10.001,26.223,10.001,36.224,0l22.076-22.076c10.001,10.001,26.223,10.001,36.224,0L256,437.141c10.001-10.001,10.001-26.223,0-36.224l-45.286-45.286l144.913-144.913l45.286,45.286c10.001,10.001,26.223,10.001,36.224,0l45.286-45.286c10.001-10.001,10.001-26.223,0-36.224l22.076-22.076c10.001-10.001,10.001-26.223,0-36.224L395.819,7.505z"/>
</svg>
