<?xml version="1.0" encoding="utf-8"?>
<!-- From meeting-interview-svgrepo-com.svg; meeting icon -->
<svg viewBox="0 0 392.598 392.598" xmlns="http://www.w3.org/2000/svg" aria-hidden="true" role="img">
  <rect x="35.362" y="183.564" width="322.004" height="131.232" fill="#0b1120" />
  <path
    d="M321.422,98.683c18.036,0,32.711-14.675,32.711-32.711s-14.675-32.711-32.711-32.711c-18.036,0-32.711,14.675-32.711,32.711
       S303.386,98.683,321.422,98.683z"
    fill="#e5e7eb"
  />
  <circle cx="321.422" cy="66.036" r="10.925" fill="#0f172a" />
  <path
    d="M196.331,98.683c18.036,0,32.711-14.675,32.711-32.711s-14.675-32.711-32.711-32.711S163.62,47.935,163.62,65.972
       S178.295,98.683,196.331,98.683z"
    fill="#e5e7eb"
  />
  <circle cx="196.331" cy="66.036" r="10.925" fill="#0f172a" />
  <path
    d="M71.305,98.683c18.036,0,32.711-14.675,32.711-32.711S89.341,33.261,71.305,33.261S38.594,48,38.594,66.036
       S53.204,98.683,71.305,98.683z"
    fill="#e5e7eb"
  />
  <circle cx="71.305" cy="66.036" r="10.925" fill="#0f172a" />
  <path
    d="M381.737,161.778h-7.822V144.84c0-11.055-6.012-21.01-15.774-26.053c-23.014-11.895-50.489-11.83-73.503,0
       c-9.762,5.042-15.774,14.998-15.774,26.053v16.937h-20.04V144.84c0-11.055-6.012-21.01-15.774-26.053
       c-23.014-11.895-50.489-11.83-73.503,0c-9.762,5.042-15.774,14.998-15.774,26.053v16.937h-20.04V144.84
       c0-11.055-6.012-21.01-15.774-26.053c-23.014-11.895-50.489-11.83-73.503,0c-9.762,5.042-15.774,14.998-15.774,26.053v16.937h-7.758
       C4.913,161.778,0,166.626,0,172.703c0,6.012,4.848,10.925,10.925,10.925h2.521v142.093c0,6.012,4.848,10.925,10.925,10.925h22.303
       v11.766c0,6.012,4.848,10.925,10.925,10.925s10.925-4.848,10.925-10.925v-11.766h255.547v11.766
       c0,6.012,4.848,10.925,10.925,10.925c6.012,0,10.925-4.848,10.925-10.925v-11.766h22.303c6.012,0,10.925-4.848,10.925-10.925
       V183.564h2.521c6.012,0,10.925-4.848,10.925-10.925C392.533,166.626,387.749,161.778,381.737,161.778z"
    fill="#1f2937"
  />
  <path
    d="M57.147,205.414v11.055h31.289c6.012,0,10.925,4.848,10.925,10.925c0,6.012-4.848,10.925-10.925,10.925H57.147v21.786h9.568
       c6.012,0,10.925,4.848,10.925,10.925c0,6.012-4.848,10.925-10.925,10.925h-9.568v11.119h278.368v-87.661H57.147z"
    fill="#0ea5e9"
  />
</svg>

