<?xml version="1.0" encoding="utf-8"?>
<!-- From medical-history-doctor-svgrepo-com (1).svg; doctor/medical for physio -->
<svg viewBox="0 0 392.727 392.727" xmlns="http://www.w3.org/2000/svg" aria-hidden="true" role="img">
  <path fill="#e5e7eb" d="M322.844,370.812c5.301,0,9.632-4.331,9.632-9.632V122.764h-62.449c-6.012,0-10.925-4.848-10.925-10.925V21.851H69.818c-5.301,0-9.632,4.331-9.632,9.632v329.568c0,5.301,4.331,9.632,9.632,9.632H322.78v0.129H322.844z"/>
  <path fill="#fcd34d" d="M256.776,48.097c-2.069-2.844-5.301-4.461-8.792-4.461H92.832c-6.012,0-10.925,4.848-10.925,10.925v283.539c0,6.012,4.848,10.925,10.925,10.925H299.83c6.012,0,10.925-4.848,10.925-10.925v-212.04"/>
  <g fill="#1e40af">
    <path d="M280.372,335.257H111.58c-6.012,0-10.925-4.848-10.925-10.925c0-6.012,4.848-10.925,10.925-10.925h168.792c6.012,0,10.925,4.849,10.925,10.925C291.232,330.408,286.384,335.257,280.372,335.257z"/>
    <path d="M280.372,286.578H111.58c-6.012,0-10.925-4.848-10.925-10.925c0-6.012,4.848-10.925,10.925-10.925h168.792c6.012,0,10.925,4.849,10.925,10.925C291.232,281.729,286.384,286.578,280.372,286.578z"/>
    <path d="M162.715,237.964H111.58c-6.012,0-10.925-4.848-10.925-10.925c0-6.012,4.848-10.925,10.925-10.925h51.135c6.012,0,10.925,4.848,10.925,10.925C173.64,233.051,168.727,237.964,162.715,237.964z"/>
    <path d="M162.715,189.285H111.58c-6.012,0-10.925-4.848-10.925-10.925c0-6.012,4.848-10.925,10.925-10.925h51.135c6.012,0,10.925,4.848,10.925,10.925S168.727,189.285,162.715,189.285z"/>
    <path d="M169.826,86.497h-18.23v-18.23c0-6.012-4.848-10.925-10.925-10.925s-10.925,4.848-10.925,10.925v18.23h-18.23c-6.012,0-10.925,4.848-10.925,10.925c0,6.012,4.848,10.925,10.925,10.925h18.23v18.23c0,6.012,4.848,10.925,10.925,10.925s10.925-4.848,10.925-10.925v-18.23h18.23c6.012,0,10.925-4.848,10.925-10.925C180.752,91.345,175.838,86.497,169.826,86.497z"/>
    <path d="M348.315,99.943l-63.224-86.949C279.208,4.848,269.64,0,259.62,0H69.818c-17.39,0-31.547,14.158-31.547,31.547V361.18c0,17.39,14.158,31.547,31.547,31.547h253.091c17.39,0,31.547-14.158,31.547-31.547V118.497C354.327,111.774,352.259,105.438,348.315,99.943z M281.018,44.477l41.051,56.436h-41.051V44.477z M332.541,361.051c0,5.301-4.331,9.632-9.632,9.632H69.818c-5.301,0-9.632-4.331-9.632-9.632V31.612c0-5.301,4.331-9.632,9.632-9.632h189.414v89.923c0,6.012,4.848,10.925,10.925,10.925h62.448L332.541,361.051L332.541,361.051z"/>
  </g>
  <g fill="#38bdf8">
    <polygon points="281.018,100.913 322.069,100.913 281.018,44.477"/>
    <path d="M271.257,180.622c0-6.077-4.913-11.055-11.055-11.055c-5.172,0-9.568,3.491-10.731,8.469c-2.715,10.537-17.778,11.766-21.269,0c-1.164-5.042-5.624-8.469-10.731-8.469c-6.077,0-11.055,4.913-11.055,11.055c0,14.287,17.778,35.943,32.453,49.972C253.543,216.566,271.257,194.844,271.257,180.622z"/>
  </g>
  <path fill="#1e40af" d="M260.267,147.782c-8.145,0-15.58,2.909-21.398,7.887c-5.818-4.913-13.317-7.887-21.398-7.887c-18.166,0-32.905,14.739-32.905,32.905c0,32.065,42.343,68.913,47.192,73.051c4.719,3.491,9.438,3.491,14.158,0c4.848-4.073,47.192-40.986,47.192-73.051C293.107,162.586,278.303,147.782,260.267,147.782z M206.352,180.622c0-6.077,4.913-11.055,11.055-11.055c5.172,0,9.568,3.491,10.731,8.469c3.426,11.766,18.489,10.537,21.269,0c1.164-5.042,5.624-8.469,10.731-8.469c6.077,0,11.055,4.913,11.055,11.055c0,14.222-17.778,35.943-32.453,49.972C224.129,216.63,206.352,194.909,206.352,180.622z"/>
</svg>
