<svg viewBox="0 0 512 512" xmlns="http://www.w3.org/2000/svg">
<path fill="#F4C064" d="M374.568,234.442c0,23.812-19.304,43.116-43.116,43.116c-23.812,0-43.116-19.304-43.116-43.116s19.304-43.116,43.116-43.116C355.264,191.326,374.568,210.63,374.568,234.442z"/>
<path fill="#F4AB53" d="M288.337,234.442h86.232c0,23.812-19.304,43.116-43.116,43.116C307.641,277.558,288.337,258.254,288.337,234.442z"/>
<path fill="#B5E1F4" d="M460.8,331.453h21.558c11.906,0,21.558,9.651,21.558,21.558v64.674c0,11.906-9.651,21.558-21.558,21.558H51.2c-11.906,0-21.558-9.651-21.558-21.558V353.01c0-11.906,9.651-21.558,21.558-21.558h269.474v-53.895c0-23.812,19.304-43.116,43.116-43.116H460.8c23.812,0,43.116,19.304,43.116,43.116v10.779C503.916,312.149,484.612,331.453,460.8,331.453z"/>
<path fill="#8E5B8E" d="M342.232,288.337v75.453c0,11.906-9.651,21.558-21.558,21.558H29.642c-11.906,0-21.558-9.651-21.558-21.558v-75.453c0-11.906,9.651-21.558,21.558-21.558h291.032C332.58,266.779,342.232,276.43,342.232,288.337z"/>
<path fill="#AF7AAE" d="M342.232,288.337v75.453c0,11.906-9.651,21.558-21.558,21.558h-75.453V266.779h75.453C332.58,266.779,342.232,276.43,342.232,288.337z"/>
<path fill="#90B5BF" d="M218.274,169.768h-43.116c-44.647,0-80.842-36.195-80.842-80.842l0,0c0-44.647,36.195-80.842,80.842-80.842h43.116c44.647,0,80.842,36.195,80.842,80.842l0,0C299.116,133.574,262.921,169.768,218.274,169.768z"/>
<path fill="#B5E1F4" d="M299.116,153.6c0,14.883-12.065,26.947-26.947,26.947c-14.882,0-26.947-12.065-26.947-26.947c0-14.882,12.065-26.947,26.947-26.947C287.051,126.653,299.116,138.717,299.116,153.6z"/>
<path fill="#FFE77C" d="M212.884,129.258c-7.708,5.16-16.975,8.174-26.947,8.174c-26.789,0-48.505-21.716-48.505-48.505s21.716-48.505,48.505-48.505c9.973,0,19.239,3.013,26.947,8.174c-12.998,8.702-21.558,23.515-21.558,40.332S199.886,120.556,212.884,129.258z"/>
</svg>
