<?xml version="1.0" encoding="iso-8859-1"?>
<!-- Uploaded to: SVG Repo, www.svgrepo.com, Generator: SVG Repo Mixer Tools -->
<svg fill="#000000" version="1.1" id="Layer_1" xmlns="http://www.w3.org/2000/svg" xmlns:xlink="http://www.w3.org/1999/xlink" 
	 viewBox="0 0 512 512" xml:space="preserve">
<g>
	<g>
		<rect x="68.218" y="220.238" width="49.174" height="72.26"/>
	</g>
</g>
<g>
	<g>
		<path d="M239.304,188.138v-21.181H68.221v19.893h65.865c9.22,0,16.696,7.475,16.696,16.696v105.651
			c0,9.22-7.475,16.696-16.696,16.696H68.221v19.151h171.084v-21.181c-30.501-7.506-53.197-35.078-53.197-67.862
			S208.804,195.644,239.304,188.138z"/>
	</g>
</g>
<g>
	<g>
		<path d="M219.499,256c0,14.112,8.056,26.371,19.806,32.442v-64.885C227.555,229.629,219.499,241.888,219.499,256z"/>
	</g>
</g>
<g>
	<g>
		<path d="M272.696,223.558v64.885c11.749-6.072,19.805-18.331,19.805-32.443C292.501,241.888,284.445,229.629,272.696,223.558z"/>
	</g>
</g>
<g>
	<g>
		<path d="M376.905,186.479h66.875v-19.523H272.696v21.181c30.501,7.506,53.197,35.078,53.197,67.862
			c0,32.785-22.696,60.356-53.197,67.862v21.181h171.084v-19.523h-66.874c-9.22,0-16.696-7.475-16.696-16.696v-105.65
			C360.21,193.955,367.685,186.479,376.905,186.479z"/>
	</g>
</g>
<g>
	<g>
		<path d="M488.07,92.383H23.93C10.714,92.383,0,103.097,0,116.313v279.374c0,13.216,10.714,23.93,23.93,23.93H488.07
			c13.216,0,23.93-10.714,23.93-23.93V116.313C512,103.097,501.286,92.383,488.07,92.383z M460.475,378.435H51.525
			c-9.22,0-16.696-7.475-16.696-16.696v-52.542V203.546v-53.285c0-9.22,7.475-16.696,16.696-16.696h408.95
			c9.22,0,16.696,7.475,16.696,16.696v211.478h0C477.171,370.96,469.695,378.435,460.475,378.435z"/>
	</g>
</g>
<g>
	<g>
		<rect x="393.606" y="219.871" width="49.174" height="72.26"/>
	</g>
</g>
</svg>
