<svg viewBox="0 0 496.2 496.2" xmlns="http://www.w3.org/2000/svg">
<path fill="#65A844" d="M0,248.1C0,111.1,111.1,0,248.1,0s248.1,111.1,248.1,248.1S385.1,496.2,248.1,496.2S0,385.1,0,248.1z"/>
<g>
<path fill="#C9E5A1" d="M250.1,210.1V0c-0.7,0-1.3,0-2,0c-0.7,0-1.3,0-2,0v210c-20.1,1-36.1,17.7-36.1,38s16,37,36.1,38v210c0.7,0,1.3,0,2,0c0.7,0,1.3,0,2,0V286.1c20.1-1,36.1-17.7,36.1-38S270.2,211.1,250.1,210.1z M214,248.1c0-18.1,14.2-33,32.1-34v31c-0.9,0.6-1.6,1.7-1.6,3c0,1.3,0.6,2.3,1.6,3v31C228.2,281.1,214,266.2,214,248.1z M250.1,282.1v-31c0.9-0.6,1.6-1.7,1.6-3s-0.6-2.3-1.6-3v-31c17.9,1,32.1,15.9,32.1,34S268,281.1,250.1,282.1z"/>
<circle fill="#C9E5A1" cx="449.6" cy="248.1" r="3.6"/>
<circle fill="#C9E5A1" cx="46.6" cy="248.1" r="3.6"/>
<path fill="#C9E5A1" d="M433.3,282.8v-69.4v-46.1h49.4c-0.5-1.3-0.9-2.7-1.4-4h-52v52.5c-11,6.9-17.8,19.2-17.8,32.3c0,13.2,6.8,25.5,17.8,32.4v53.3h51.6c0.5-1.3,1-2.7,1.4-4h-49.1v-47H433.3z M415.5,248.1c0-10.9,5.2-21.1,13.8-27.5v55C420.6,269.3,415.5,259.3,415.5,248.1z"/>
<path fill="#C9E5A1" d="M472,212.3h21.5c-0.2-1.3-0.4-2.7-0.6-4H468v80.5h24.8c0.2-1.3,0.4-2.7,0.6-4H472V212.3z"/>
<path fill="#C9E5A1" d="M67.4,216.6v-53.3H14.9c-0.5,1.3-0.9,2.7-1.4,4h49.9v47v69.4v46.1H13.8c0.5,1.3,0.9,2.7,1.4,4h52.2v-52.5c11-6.9,17.8-19.2,17.8-32.3C85.2,235.7,78.4,223.5,67.4,216.6z M67.4,276.4v-55c8.7,6.3,13.8,16.4,13.8,27.6C81.2,259.9,76,270.1,67.4,276.4z"/>
<path fill="#C9E5A1" d="M28.7,208.3H3.2c-0.2,1.3-0.4,2.7-0.6,4h22.1v72.5h-22c0.2,1.3,0.4,2.7,0.6,4h25.4V208.3z"/>
</g>
</svg>
