<?xml version="1.0" encoding="utf-8"?>
<!-- From bus-svgrepo-com (2).svg; bus icon for traveling -->
<svg viewBox="0 0 72 72" xmlns="http://www.w3.org/2000/svg" aria-hidden="true" role="img">
  <g>
    <path
      fill="#EA5A47"
      d="M17.9247,53.9753l-6.625-1.017c0,0-1.0625,0-1.0625-1.25s-0.0625-3.5625-0.0625-3.5625 s0.6832-9.4798,2.625-10.625c1.625-0.9583,46.544-0.7036,53.1365-0.5781c0.4728,0.009,0.8668,0.3478,0.9496,0.8133 c0.2375,1.3354,0.6809,4.0966,0.7264,6.3273c0.0625,3.0625-0.125,8-0.125,8l-4.7646,1.7952"
    />
    <path
      fill="#3F3F3F"
      d="M13.1331,38.0833c0,0-2.3125,3.1667-2.125,9.0417c0,0,3.9166,1.4583,9.9791-4.3125l42.9375,1.3125 c0,0,2.2292-1.2292,2.3334-6.2917C66.2581,37.8333,20.3831,35.6667,13.1331,38.0833z"
    />
    <circle cx="56.4803" cy="53.2917" r="3" fill="#D0CFCE" />
    <circle cx="23.9803" cy="53.2917" r="3" fill="#D0CFCE" />
    <rect x="40.4872" y="40.3177" width="5.0625" height="12.6667" fill="#3F3F3F" />
    <path
      fill="#FCEA2B"
      d="M11.1591,50.6562h2.5783l1.0723-2.3125h-2.8795c-0.4259,0-0.7711,0.3992-0.7711,0.8916 C11.1591,49.2353,11.1591,50.6562,11.1591,50.6562z"
    />
  </g>
</svg>
