<?xml version="1.0" encoding="utf-8"?>
<!-- From cinema-meeting-svgrepo-com.svg (SVG Repo); full cinema for video_analysis -->
<svg viewBox="0 0 392.598 392.598" xmlns="http://www.w3.org/2000/svg" aria-hidden="true" role="img">
  <path fill="#FFFFFF" d="M359.822,21.786H32.711c-6.012,0-10.925,4.848-10.925,10.925v198.271
    c0,6.012,4.848,10.925,10.925,10.925h327.111c6.012,0,10.925-4.848,10.925-10.925V32.711
    C370.747,26.699,365.834,21.786,359.822,21.786z"/>
  <path fill="#56ACE0" d="M43.572,43.572v11.055h51.135c6.012,0,10.925,4.848,10.925,10.925s-4.848,10.925-10.925,10.925
    H43.572v21.786h22.885c6.012,0,10.925,4.848,10.925,10.925c0,6.012-4.848,10.925-10.925,10.925H43.572v100.008h305.325V43.572
    H43.572z"/>
  <g fill="#194F82">
    <path d="M359.822,305.778h-79.968c-8.339,0-15.968,3.168-21.786,8.404
      c-5.818-5.172-13.446-8.404-21.786-8.404h-79.968c-8.339,0-15.968,3.168-21.786,8.404c-5.818-5.172-13.446-8.404-21.786-8.404
      H32.711C14.675,305.778,0,320.453,0,338.554v43.119c0,6.012,4.848,10.925,10.925,10.925h370.747
      c6.012,0,10.925-4.848,10.925-10.925v-43.119C392.533,320.453,377.859,305.778,359.822,305.778z M123.539,370.747H21.786v-32.194
      c0-6.012,4.848-10.925,10.925-10.925h79.968c6.012,0,10.925,4.848,10.925,10.925L123.539,370.747L123.539,370.747z
       M247.143,370.747H145.39v-32.194c0-6.012,4.848-10.925,10.925-10.925h79.968c6.012,0,10.925,4.848,10.925,10.925v32.194H247.143z
       M370.747,370.747H268.994v-32.194c0-6.012,4.848-10.925,10.925-10.925h79.903c6.012,0,10.925,4.848,10.925,10.925V370.747
      L370.747,370.747z"/>
    <path d="M359.822,0H32.711C14.675,0,0,14.675,0,32.711v198.271c0,18.036,14.675,32.711,32.711,32.711
      h327.111c18.036,0,32.711-14.675,32.711-32.711V32.711C392.533,14.675,377.859,0,359.822,0z M370.747,230.982
      c0,6.012-4.848,10.925-10.925,10.925H32.711c-6.012,0-10.925-4.848-10.925-10.925V32.711c0-6.012,4.848-10.925,10.925-10.925
      h327.111c6.012,0,10.925,4.848,10.925,10.925V230.982L370.747,230.982z"/>
  </g>
  <path fill="#FFC10D" d="M32.711,327.564c-6.012,0-10.925,4.848-10.925,10.925v32.194h101.754v-32.194
    c0-6.012-4.848-10.925-10.925-10.925H32.711z"/>
  <path fill="#FFFFFF" d="M236.218,327.564h-79.903c-6.012,0-10.925,4.848-10.925,10.925v32.194h101.754v-32.194
    C247.208,332.477,242.23,327.564,236.218,327.564z"/>
  <g fill="#FFC10D">
    <path d="M370.747,338.554c0-6.012-4.848-10.925-10.925-10.925h-79.968c-6.012,0-10.925,4.849-10.925,10.925
      v32.194h101.754v-32.194H370.747z"/>
    <polygon points="211.976,131.814 194.715,119.402 194.715,144.291"/>
  </g>
  <path fill="#FFFFFF" d="M196.267,66.844c-35.879,0-64.97,29.156-64.97,64.97s29.091,64.97,64.97,64.97
    s64.97-29.156,64.97-64.97S232.145,66.844,196.267,66.844z"/>
  <g fill="#194F82">
    <path d="M196.267,45.059c-47.838,0-86.885,38.917-86.885,86.885s39.046,86.756,86.885,86.756
      s86.885-38.917,86.885-86.756S244.105,45.059,196.267,45.059z M196.267,196.913c-35.879,0-64.97-29.156-64.97-64.97
      s29.091-65.034,64.97-65.034s64.97,29.156,64.97,64.97S232.145,196.913,196.267,196.913z"/>
    <path d="M236.929,123.022l-46.61-33.875c-7.176-4.978-17.325-0.776-17.325,8.792v67.685
      c0,7.952,8.663,14.481,17.325,8.792l46.61-33.875C242.812,136.275,242.812,127.547,236.929,123.022z M194.78,144.291v-24.889
      l17.131,12.412L194.78,144.291z"/>
  </g>
</svg>
